<svg xmlns="http://www.w3.org/2000/svg" viewBox="0 0 64 64" role="img" aria-label="Football">
  <defs><clipPath id="ball"><circle cx="32" cy="32" r="30"/></clipPath></defs>
  <circle cx="32" cy="32" r="30" fill="#ffffff" stroke="#0b1120" stroke-width="2.5"/>
  <g clip-path="url(#ball)">
    <g stroke="#0f1626" stroke-width="2.4" stroke-linecap="round"><line x1="37.23" y1="24.80" x2="49.63" y2="7.73"/><line x1="40.46" y1="34.75" x2="60.53" y2="41.27"/><line x1="32.00" y1="40.90" x2="32.00" y2="62.00"/><line x1="23.54" y1="34.75" x2="3.47" y2="41.27"/><line x1="26.77" y1="24.80" x2="14.37" y2="7.73"/></g>
    <g fill="#0f1626">
      <polygon points="32.00,21.00 42.46,28.60 38.47,40.90 25.53,40.90 21.54,28.60"/>
      <polygon points="41.40,19.06 38.14,8.99 46.69,2.77 55.25,8.99 51.98,19.06"/><polygon points="47.22,36.94 55.78,30.73 64.34,36.94 61.07,47.01 50.49,47.01"/><polygon points="32.00,48.00 40.56,54.22 37.29,64.28 26.71,64.28 23.44,54.22"/><polygon points="16.78,36.94 13.51,47.01 2.93,47.01 -0.34,36.94 8.22,30.73"/><polygon points="22.60,19.06 12.02,19.06 8.75,8.99 17.31,2.77 25.86,8.99"/>
    </g>
  </g>
</svg>
